# xmcd
#
# Track frame offsets: 
#        150
#        17704
#        38747
#        75502
#        96262
#        119372
#        136322
#        148025
#        166177
#        196050
#        215675
#        238627
#
# Disc length: 4202 seconds
#
# Revision: 3
# Processed by: cddbd v1.5.2PL0 Copyright (c) Steve Scherf et al.
# Submitted via: ExactAudioCopy v0.99pb3
#
DISCID=9d10680c
DTITLE=Spiritualized - Ladies and gentlemen we are floating in space B
DTITLE=P SP70
DYEAR=1997
DGENRE=Space Rock
TTITLE0=Ladies and gentlemen we are floating in space (I can't help fa
TTITLE0=lling in love)
TTITLE1=Come together
TTITLE2=I think I'm in love
TTITLE3=All of my thoughts
TTITLE4=Stay with me
TTITLE5=Electricity
TTITLE6=Home of the brave
TTITLE7=The individual
TTITLE8=Broken heart
TTITLE9=No God only religion
TTITLE10=Cool waves
TTITLE11=Cop shoot cop. . .
EXTD=
EXTT0=
EXTT1=
EXTT2=
EXTT3=
EXTT4=
EXTT5=
EXTT6=
EXTT7=
EXTT8=
EXTT9=
EXTT10=
EXTT11=
PLAYORDER=
